<?xml version="1.0" encoding="utf-8"?>
<!-- Generator: Adobe Illustrator 25.4.1, SVG Export Plug-In . SVG Version: 6.00 Build 0)  -->
<svg version="1.1" id="Layer_1" xmlns="http://www.w3.org/2000/svg" xmlns:xlink="http://www.w3.org/1999/xlink" x="0px" y="0px"
	 viewBox="0 0 79.5 36.9" style="enable-background:new 0 0 79.5 36.9;" xml:space="preserve">
<style type="text/css">
	.st0{fill:none;stroke:#52ADC4;stroke-width:4;stroke-miterlimit:10;}
	.st1{fill:#52ADC4;stroke:#52ADC4;stroke-miterlimit:10;}
</style>
<path id="Path_536" class="st0" d="M1.4,21.4c4.8,2.3,8,6.8,11.1,11C16,21,22,10.6,30.1,1.8"/>
<g>
	<path class="st1" d="M34.7,6.5l-0.2,23.1l9,0.1l0,2.7l-12.4-0.1l0.2-25.8L34.7,6.5z"/>
	<path class="st1" d="M43.7,6.5c0-1.3,1-2.3,2.3-2.3c1.2,0,2.2,1,2.2,2.3s-1,2.3-2.2,2.3C44.7,8.8,43.7,7.8,43.7,6.5z M44.2,12.1
		l3.4,0l-0.2,20.3l-3.4,0L44.2,12.1z"/>
	<path class="st1" d="M58.4,32.8c-4.7,0-8-2.7-8.2-6.4l3.5,0c0.2,2,1.9,3.5,4.7,3.5c2.7,0,4.2-1.3,4.2-3c0-4.5-12-2-11.9-9.5
		c0-3.1,3-5.6,7.5-5.6c4.5,0,7.4,2.5,7.6,6.4l-3.4,0c-0.1-2-1.7-3.5-4.4-3.6c-2.5,0-4,1.2-4,2.8c0,4.8,11.7,2.3,11.8,9.5
		C65.8,30.3,62.8,32.8,58.4,32.8z"/>
	<path class="st1" d="M69.4,15l-2.6,0l0-2.8l2.6,0l0-5.1l3.4,0l0,5.1l5.3,0l0,2.8l-5.3,0l-0.1,12c0,2,0.7,2.7,2.8,2.7l2.5,0l0,2.8
		l-3,0c-3.6,0-5.6-1.5-5.6-5.6L69.4,15z"/>
</g>
</svg>
